<svg xmlns="http://www.w3.org/2000/svg" version="1.1" viewBox="-5.0 -10.0 110.0 135.0">
 <path d="m93.574 41.66c-0.44141 1.25-1.6211 2.0898-2.9492 2.0898h-43.75c-1.7266 0-3.125-1.3984-3.125-3.125s1.3984-3.125 3.125-3.125h34.844l-8.6719-6.9336c-1.3477-1.082-1.5664-3.0469-0.48828-4.3945 1.082-1.3398 3.043-1.5664 4.3945-0.48828l15.625 12.5c1.0352 0.83203 1.4336 2.2266 0.99609 3.4766zm-49.824 14.59h-34.375c-1.2617 0-2.4062 0.76172-2.8867 1.9297-0.48438 1.168-0.21484 2.5117 0.67578 3.4062l12.5 12.5c0.61328 0.60937 1.4102 0.91406 2.2109 0.91406s1.5977-0.30469 2.2109-0.91406c1.2188-1.2188 1.2188-3.1992 0-4.418l-7.168-7.168h26.832c1.7266 0 3.125-1.3984 3.125-3.125s-1.3984-3.125-3.125-3.125zm12.5 0h-3.125c-1.7266 0-3.125 1.3984-3.125 3.125s1.3984 3.125 3.125 3.125h3.125c1.7266 0 3.125-1.3984 3.125-3.125s-1.3984-3.125-3.125-3.125z"/>
</svg>