<svg xmlns="http://www.w3.org/2000/svg" version="1.1" viewBox="-5.0 -10.0 110.0 135.0">
 <path d="m74.266 36.098c9.8164 0.4375 15.156-11.512 8.1562-18.512-7.0039-7.0039-18.949-1.6602-18.512 8.1562l6.6562-2.5117c3.8867-1.4648 7.6758 2.3281 6.2109 6.2148zm-3.4062 9.0352 2.4453-6.4844c12.559 1.3477 19.953-13.934 10.969-22.914-8.9844-8.9883-24.262-1.5781-22.914 10.969l-6.4844 2.4453c-1.2812-6.5703 0.72656-13.379 5.5586-18.211 12.727-12.727 34.566-3.6562 34.566 14.32 0 12.801-11.691 22.297-24.141 19.875zm0.62891-19.457c1.7891-0.67578 3.5117 1.0703 2.8438 2.8438l-24.547 65.055c-0.70703 1.8711-3.3242 1.918-4.0977 0.078125l-11.129-26.352 10.523-10.523c1.2188-1.2188-0.63281-3.0742-1.8516-1.8516l-10.523 10.523-26.355-11.129c-1.8398-0.77344-1.7969-3.3945 0.078126-4.1016z" fill-rule="evenodd"/></svg>